<?xml version="1.0" standalone="no"?>
<!DOCTYPE svg PUBLIC "-//W3C//DTD SVG 20010904//EN"
 "http://www.w3.org/TR/2001/REC-SVG-20010904/DTD/svg10.dtd">
<svg version="1.0" xmlns="http://www.w3.org/2000/svg"
 width="512.000000pt" height="512.000000pt" viewBox="0 0 512.000000 512.000000"
 preserveAspectRatio="xMidYMid meet">
<metadata>
Created by potrace 1.14, written by Peter Selinger 2001-2017
</metadata>
<g transform="translate(0.000000,512.000000) scale(0.100000,-0.100000)"
fill="#000000" stroke="none">
<path d="M2379 5116 c-2 -2 -35 -7 -74 -10 -68 -7 -84 -9 -152 -21 -18 -3 -48
-7 -65 -10 -18 -3 -41 -8 -50 -11 -9 -3 -25 -6 -35 -8 -151 -30 -431 -130
-549 -196 -19 -11 -41 -20 -49 -20 -8 0 -15 -4 -15 -9 0 -5 -17 -16 -37 -25
-75 -32 -294 -181 -408 -276 -92 -77 -255 -242 -323 -325 -81 -100 -213 -287
-236 -335 -4 -8 -15 -28 -24 -45 -26 -46 -86 -159 -87 -165 0 -3 -8 -21 -17
-40 -47 -97 -146 -389 -163 -475 -2 -11 -4 -20 -5 -20 -1 0 -3 -16 -6 -35 -2
-19 -8 -55 -14 -80 -6 -25 -12 -61 -14 -80 -2 -19 -8 -64 -12 -100 -10 -79
-11 -465 -1 -537 4 -29 9 -67 11 -85 54 -411 252 -892 493 -1198 162 -206 293
-338 503 -504 8 -6 51 -36 95 -65 44 -30 92 -62 106 -72 43 -29 249 -133 339
-172 128 -54 313 -113 430 -136 30 -6 66 -14 80 -17 141 -29 240 -38 455 -38
164 -1 237 3 365 19 45 5 191 35 253 51 34 9 70 18 80 19 19 4 80 23 112 35
11 5 47 18 80 30 112 40 410 184 435 210 3 3 43 30 90 60 47 30 90 60 95 66 6
5 28 23 50 39 127 91 317 282 439 442 41 54 84 110 95 124 11 14 26 38 32 53
7 14 16 26 21 26 4 0 8 4 8 10 0 5 15 33 34 62 58 91 204 410 221 483 1 6 5
17 8 25 21 55 62 220 82 325 34 186 40 253 40 480 0 194 -3 232 -24 380 -13
85 -19 115 -41 210 -6 28 -14 61 -16 74 -3 13 -9 32 -15 43 -5 10 -8 18 -5 18
7 0 -70 212 -110 303 -40 91 -114 233 -165 317 -36 58 -146 217 -164 236 -5 6
-23 27 -38 47 -273 347 -732 661 -1177 804 -92 30 -264 74 -305 79 -16 2 -41
6 -55 9 -14 3 -43 7 -65 10 -22 3 -56 8 -75 11 -40 7 -455 15 -461 10z"/>
</g>
</svg>
